<svg width="70" height="87" viewBox="0 0 70 87" fill="none" xmlns="http://www.w3.org/2000/svg">
<path d="M34.7832 78.9557C44.3437 78.9557 52.9708 79.4706 59.1816 80.2955C62.2979 80.7094 64.7455 81.1942 66.3838 81.7086C66.7911 81.8365 67.1269 81.9606 67.3984 82.0758C67.1269 82.1909 66.791 82.3151 66.3838 82.443C64.7455 82.9574 62.2977 83.4412 59.1816 83.8551C52.9708 84.68 44.3437 85.1959 34.7832 85.1959C25.223 85.1959 16.5966 84.68 10.3857 83.8551C7.26939 83.4412 4.82093 82.9575 3.18262 82.443C2.77526 82.3151 2.43952 82.191 2.16797 82.0758C2.43952 81.9606 2.77523 81.8366 3.18262 81.7086C4.82093 81.1942 7.26939 80.7094 10.3857 80.2955C16.5965 79.4707 25.223 78.9557 34.7832 78.9557Z" fill="black" stroke="black" stroke-width="3"/>
<path d="M46.1719 20.3037C49.5751 19.3781 52.1642 19.1555 54.4404 20.8242C62.7053 26.8831 68.0664 36.6581 68.0664 47.6855C68.0664 66.0674 53.1651 80.9688 34.7832 80.9688C16.4014 80.9686 1.50004 66.0674 1.5 47.6855C1.5 36.6582 6.86128 26.8832 15.126 20.8242C17.4022 19.1556 19.9914 19.3781 23.3945 20.3037C24.2337 20.532 25.0903 20.7934 25.9902 21.0654C26.8819 21.3349 27.8118 21.6135 28.7588 21.8633C30.6511 22.3623 32.6773 22.7636 34.7832 22.7637C36.8893 22.7637 38.9161 22.3624 40.8086 21.8633C41.7557 21.6135 42.6854 21.3349 43.5771 21.0654C44.477 20.7935 45.3328 20.5319 46.1719 20.3037Z" stroke="black" stroke-width="3"/>
<circle cx="23.4481" cy="47.6855" r="4.38012" fill="black"/>
<circle cx="46.6748" cy="47.6855" r="4.38012" fill="black"/>
<path d="M34.6092 23.7678C34.6092 23.7678 33.2746 19.3394 34.6092 14.3571C35.9439 9.37491 42.5879 5.76474 42.5879 5.76474" stroke="black" stroke-width="2" stroke-linecap="round"/>
<circle cx="44.6718" cy="4.12466" r="2.62466" stroke="black" stroke-width="3"/>
</svg>
