<svg width="264" height="302" viewBox="0 0 264 302" fill="none" xmlns="http://www.w3.org/2000/svg">
<path d="M131.504 205.733L137.117 223.008H155.281L140.586 233.684L146.199 250.959L131.504 240.283L116.81 250.959L122.423 233.684L107.728 223.008H125.891L131.504 205.733Z" fill="currentColor"/>
<path d="M178.504 190.733L182.995 204.553H197.525L185.77 213.094L190.26 226.914L178.504 218.373L166.749 226.914L171.239 213.094L159.483 204.553H174.014L178.504 190.733Z" fill="currentColor"/>
<path d="M86.5043 202.733L90.0966 213.789H101.721L92.3167 220.622L95.9089 231.678L86.5043 224.845L77.0998 231.678L80.692 220.622L71.2874 213.789H82.9121L86.5043 202.733Z" fill="currentColor"/>
<path d="M81.7041 143.733L130.966 156.933L117.767 206.195L81.7041 143.733Z" fill="currentColor"/>
<path d="M181.767 118.195L132.504 104.996L145.704 55.7334L181.767 118.195Z" fill="currentColor"/>
<path d="M137.38 2.24121C181.298 23.6148 206.917 32.1131 255.485 41.9316L263.259 43.5029L263.5 51.4316C264.003 68.1127 263.953 83.5978 263.24 98.0625C261.956 95.8781 260.617 93.7657 259.251 91.7393C254.198 84.2426 248.641 77.7041 243.83 72.7432C243.831 68.5668 243.79 64.2942 243.704 59.9209C200.052 50.7391 173.663 41.8563 133.23 22.4492C90.9729 44.847 63.8765 53.884 20.2429 60.4375C19.8653 75.0724 19.9182 88.6138 20.4909 101.222C37.7157 87.1424 54.3403 78.6268 72.281 79.9287C95.2911 81.5988 116.395 99.1374 140.631 128.764C160.211 151.131 173.75 162.247 187.054 164.599C199.191 166.743 214.207 161.942 237.882 142.736C239.151 136.502 240.206 129.993 241.056 123.174C237.454 112.34 229.816 99.1643 218.462 91.7217C212.638 87.9043 205.798 85.5502 197.684 85.6855C189.499 85.8223 180.751 87.9128 168.504 95.2246L158.56 78C173.112 69.3122 184.937 65.8949 197.35 65.6875C209.836 65.4791 220.567 69.1879 229.426 74.9951C234.873 78.5652 239.591 82.9072 243.629 87.6123C243.629 87.5833 243.63 87.5544 243.631 87.5254C246.087 90.5085 248.583 93.8029 250.959 97.3281C255.363 103.862 259.229 111.007 261.733 118.292C261.558 120.01 261.374 121.713 261.175 123.4C260.069 132.816 258.594 141.788 256.708 150.378C242.721 214.076 206.642 254.201 138.462 298.612L133.299 301.976L127.973 298.876C73.332 267.068 39.405 236.158 20.363 195.279C24.1508 197.263 28.0087 198.986 31.7917 200.472C37.8309 202.844 43.8038 204.662 49.1999 206C66.4368 232.164 92.9018 254.706 132.712 278.452C184.153 244.258 213.549 213.89 229.059 173.474C213.027 182.974 198.298 186.896 183.574 184.294C162.482 180.567 144.731 163.826 125.477 141.817L125.367 141.691L125.26 141.562C100.976 111.849 84.6379 100.878 70.8327 99.876C57.921 98.9393 43.5855 106.475 22.4489 126.101C23.7078 136.902 25.4819 146.929 27.8288 156.321C32.2524 163.305 40.5699 171.785 51.5436 175.723C62.4437 179.634 76.1949 180.256 95.0043 166.77L99.7353 174.964L105.122 184.294C86.6516 197.537 72.0225 199.473 56.8669 197.48C52.6771 196.63 47.8274 195.411 42.7292 193.764C42.3931 193.629 42.0582 193.492 41.7263 193.353C41.7437 193.386 41.7615 193.419 41.779 193.452C39.6965 192.762 37.5768 192 35.4479 191.164C27.8044 188.162 20.2631 184.283 13.8991 179.435C11.9934 174.048 10.3036 168.488 8.82001 162.734C5.63978 150.4 3.43344 137.29 2.02216 123.232C-0.129171 101.804 -0.441857 78.0605 0.510442 51.377L0.810247 42.9697L9.14521 41.8262C56.9945 35.2627 82.6989 26.9646 128.262 2.42871L132.773 0L137.38 2.24121Z" fill="currentColor"/>
</svg>
